<svg width="20" height="20" viewBox="0 0 20 20" fill="none" xmlns="http://www.w3.org/2000/svg">
<path d="M6.25 18.9981C6.15039 18.9981 6.05078 18.9785 5.95605 18.9385C5.67968 18.8203 5.5 18.5488 5.5 18.2481V14.9981H4.75C2.68262 14.9981 1 13.3154 1 11.2481V5.74805C1 3.68067 2.68262 1.99805 4.75 1.99805H8.70312C9.11718 1.99805 9.45312 2.33399 9.45312 2.74805C9.45312 3.16211 9.11718 3.49805 8.70312 3.49805H4.75C3.50977 3.49805 2.5 4.50782 2.5 5.74805V11.2481C2.5 12.4883 3.50977 13.4981 4.75 13.4981H6.25C6.66406 13.4981 7 13.834 7 14.2481V16.4844L9.88379 13.708C10.0234 13.5732 10.21 13.4981 10.4043 13.4981H15.25C16.4902 13.4981 17.5 12.4883 17.5 11.2481V9.97657C17.5 9.56251 17.8359 9.22657 18.25 9.22657C18.6641 9.22657 19 9.56251 19 9.97657V11.2481C19 13.3154 17.3174 14.9981 15.25 14.9981H10.707L6.77051 18.7881C6.62793 18.9258 6.44043 18.9981 6.25 18.9981Z" fill="#292929"/>
<path d="M13.2783 9.08301C13.0898 9.08301 12.9004 9.03418 12.7295 8.93555C12.3135 8.69629 12.1025 8.22071 12.2031 7.75196L12.6631 5.62696L11.2031 4.01661C10.8809 3.66114 10.8252 3.14454 11.0645 2.7295C11.3047 2.31446 11.7852 2.10352 12.248 2.20313L14.373 2.66309L15.9834 1.20313C16.3389 0.881839 16.8584 0.827149 17.2705 1.06446C17.6865 1.30372 17.8975 1.7793 17.7969 2.24805L17.3369 4.37305L18.7969 5.9834C19.1191 6.33887 19.1748 6.85547 18.9355 7.27051C18.6953 7.68653 18.2187 7.89942 17.752 7.79688L15.627 7.33692L14.0166 8.79688C13.8086 8.98536 13.5449 9.08301 13.2783 9.08301ZM13.1523 3.93359L13.9121 4.77148C14.1484 5.02929 14.2471 5.39257 14.1729 5.74023L13.9336 6.84766L14.7715 6.08789C15.0303 5.85156 15.3975 5.75391 15.7402 5.82715L16.8477 6.06641L16.0879 5.22852C15.8516 4.97071 15.7529 4.60743 15.8271 4.25977L16.0664 3.15235L15.2285 3.91212C14.9707 4.14942 14.6055 4.24903 14.2598 4.17286L13.1523 3.93359Z" fill="#292929"/>
<path d="M7.93263 11.5039C7.80372 11.5039 7.67482 11.4707 7.55763 11.4033C7.2754 11.2402 7.13087 10.9141 7.19923 10.5957L7.37696 9.77539L6.81348 9.1543C6.59473 8.91309 6.55664 8.55762 6.71973 8.27539C6.88282 7.99316 7.21094 7.85449 7.52735 7.91699L8.34766 8.09472L8.96875 7.53124C9.21094 7.31249 9.56445 7.2744 9.84766 7.43749C10.1299 7.60058 10.2744 7.92675 10.2061 8.24511L10.0283 9.06542L10.5918 9.68651C10.8106 9.92772 10.8486 10.2832 10.6856 10.5654C10.5225 10.8477 10.1934 10.9893 9.87794 10.9238L9.05763 10.7461L8.43654 11.3096C8.29494 11.4375 8.11427 11.5039 7.93263 11.5039Z" fill="#292929"/>
</svg>
