<svg width="20" height="20" viewBox="0 0 20 20" fill="none" xmlns="http://www.w3.org/2000/svg">
<path d="M10 11.5211C10.8284 11.5211 11.5 10.8495 11.5 10.0211C11.5 9.19269 10.8284 8.52112 10 8.52112C9.17157 8.52112 8.5 9.19269 8.5 10.0211C8.5 10.8495 9.17157 11.5211 10 11.5211Z" fill="#292929"/>
<path d="M10 8.5C9.17157 8.5 8.5 9.17157 8.5 10C8.5 10.8284 9.17157 11.5 10 11.5C10.8284 11.5 11.5 10.8284 11.5 10C11.5 9.17157 10.8284 8.5 10 8.5Z" fill="#292929"/>
<path d="M4 11.5211C4.82843 11.5211 5.5 10.8495 5.5 10.0211C5.5 9.19269 4.82843 8.52112 4 8.52112C3.17157 8.52112 2.5 9.19269 2.5 10.0211C2.5 10.8495 3.17157 11.5211 4 11.5211Z" fill="#292929"/>
<path d="M4 11.5C4.82843 11.5 5.5 10.8284 5.5 10C5.5 9.17157 4.82843 8.5 4 8.5C3.17157 8.5 2.5 9.17157 2.5 10C2.5 10.8284 3.17157 11.5 4 11.5Z" fill="#292929"/>
<path d="M16 11.5211C16.8284 11.5211 17.5 10.8495 17.5 10.0211C17.5 9.19269 16.8284 8.52112 16 8.52112C15.1716 8.52112 14.5 9.19269 14.5 10.0211C14.5 10.8495 15.1716 11.5211 16 11.5211Z" fill="#292929"/>
<path d="M16 11.5C16.8284 11.5 17.5 10.8284 17.5 10C17.5 9.17157 16.8284 8.5 16 8.5C15.1716 8.5 14.5 9.17157 14.5 10C14.5 10.8284 15.1716 11.5 16 11.5Z" fill="#292929"/>
</svg>
