<svg width="20" height="20" viewBox="0 0 20 20" fill="none" xmlns="http://www.w3.org/2000/svg">
<path d="M16.3413 5.28027L12.7192 1.65918C12.2944 1.23438 11.7295 1 11.1289 1H5.25C4.00928 1 3 2.00977 3 3.25V15.75C3 16.9902 4.00928 18 5.25 18H14.75C15.9907 18 17 16.9902 17 15.75V6.87109C17 6.27929 16.7603 5.69921 16.3413 5.28027ZM15.2803 6.34082C15.3259 6.38647 15.3541 6.44458 15.3863 6.5H12.25C11.8364 6.5 11.5 6.16309 11.5 5.75V2.61401C11.5552 2.64624 11.6132 2.67419 11.6587 2.71972L15.2803 6.34082ZM14.75 16.5H5.25C4.83643 16.5 4.5 16.1631 4.5 15.75V3.25C4.5 2.83691 4.83643 2.5 5.25 2.5H10V5.75C10 6.99023 11.0093 8 12.25 8H15.5V15.75C15.5 16.1631 15.1636 16.5 14.75 16.5Z" fill="#292929"/>
</svg>
