<svg width="20" height="20" viewBox="0 0 20 20" fill="none" xmlns="http://www.w3.org/2000/svg">
<path d="M15.75 2H4.25C3.00977 2 2 3.00977 2 4.25V15.75C2 16.9902 3.00977 18 4.25 18H15.75C16.9902 18 18 16.9902 18 15.75V4.25C18 3.00977 16.9902 2 15.75 2ZM3.5 4.25C3.5 3.83691 3.83691 3.5 4.25 3.5H15.75C16.1631 3.5 16.5 3.83691 16.5 4.25V8H3.5V4.25ZM3.5 15.75V9.5H8V16.5H4.25C3.83691 16.5 3.5 16.1631 3.5 15.75ZM15.75 16.5H9.5V9.5H16.5V15.75C16.5 16.1631 16.1631 16.5 15.75 16.5Z" fill="#292929"/>
</svg>
