<svg width="20" height="20" viewBox="0 0 20 20" fill="none" xmlns="http://www.w3.org/2000/svg">
<path d="M15.75 18H4.25C3.00977 18 2 16.9902 2 15.75V4.25C2 3.00977 3.00977 2 4.25 2H15.75C16.9902 2 18 3.00977 18 4.25V15.75C18 16.9902 16.9902 18 15.75 18ZM4.25 3.5C3.83691 3.5 3.5 3.83691 3.5 4.25V15.75C3.5 16.1631 3.83691 16.5 4.25 16.5H15.75C16.1631 16.5 16.5 16.1631 16.5 15.75V4.25C16.5 3.83691 16.1631 3.5 15.75 3.5H4.25Z" fill="#292929"/>
<path d="M13.0731 9.11916L8.47336 6.64704C7.80715 6.28898 6.99994 6.77155 6.99994 7.52789V12.4721C6.99994 13.2285 7.80715 13.711 8.47336 13.353L13.0731 10.8809C13.7752 10.5035 13.7752 9.49652 13.0731 9.11916Z" fill="#292929"/>
</svg>
